<?xml version="1.0" encoding="UTF-8"?>
<svg id="Layer_1" xmlns="http://www.w3.org/2000/svg" version="1.1" viewBox="0 0 64 64">
  <!-- Generator: Adobe Illustrator 29.8.1, SVG Export Plug-In . SVG Version: 2.1.1 Build 2)  -->
  <defs>
    <style>
      .st0 {
        fill: #324559;
      }

      .st1 {
        display: none;
        fill: #fff;
        stroke: #231f20;
        stroke-miterlimit: 10;
      }
    </style>
  </defs>
  <rect class="st1" x="14" y="14" width="36" height="36"/>
  <g>
    <g>
      <path class="st0" d="M32.93,52.45c-.15,0-.29-.04-.42-.11l-9.06-5.27c-4.43-2.57-7.07-7.48-6.89-12.81l.6-18.31c.01-.45.39-.81.84-.81h7.28l7.23-4.44c.27-.17.61-.17.88,0l7.23,4.44h7.27c.45,0,.82.36.84.81l.6,18.31c.17,5.33-2.47,10.24-6.89,12.81l-9.06,5.27c-.13.08-.28.11-.42.11ZM18.79,16.81l-.57,17.5c-.15,4.72,2.17,9.05,6.06,11.31l8.64,5.02,8.64-5.02c3.89-2.26,6.21-6.6,6.06-11.31l-.57-17.5h-6.7c-.16,0-.31-.04-.44-.12l-6.99-4.3-6.99,4.3c-.13.08-.28.12-.44.12h-6.7Z"/>
      <path class="st0" d="M32.93,47.91c-.15,0-.29-.04-.42-.11l-7.09-4.12c-2-1.17-3.53-3.04-4.31-5.28-.15-.44.08-.91.51-1.07.44-.15.91.08,1.07.51.65,1.86,1.92,3.42,3.58,4.39l6.67,3.88,6.67-3.88c1.65-.96,2.92-2.52,3.58-4.39.15-.44.63-.66,1.07-.51.44.15.66.63.51,1.07-.79,2.24-2.33,4.11-4.32,5.28l-7.1,4.12c-.13.08-.28.11-.42.11Z"/>
      <path class="st0" d="M44.27,27.03c-.45,0-.82-.36-.84-.81l-.17-5.48h-4.2c-.15,0-.29-.04-.42-.12l-5.71-3.34-5.71,3.34c-.13.08-.27.12-.42.12h-4.21l-.1,2.97c-.02.46-.4.86-.86.81-.46-.01-.82-.4-.81-.86l.13-3.78c.02-.45.39-.81.84-.81h4.79l5.93-3.48c.26-.15.59-.15.85,0l5.93,3.48h4.79c.45,0,.82.36.84.81l.19,6.29c.01.46-.35.85-.81.86h-.03Z"/>
    </g>
    <g>
      <path class="st0" d="M25.34,36.12h-2.06c-1.73,0-3.14-1.41-3.14-3.14,0-.46.38-.84.84-.84s.84.37.84.84c0,.81.66,1.46,1.46,1.46h2.06c.39,0,.76-.15,1.03-.43.28-.28.43-.65.43-1.04,0-.81-.66-1.46-1.47-1.46h-2.07c-.84,0-1.62-.33-2.21-.92-.59-.59-.92-1.38-.92-2.22s.33-1.63.92-2.23c.59-.59,1.37-.91,2.2-.91h1.57c1.47,0,2.76,1.04,3.07,2.47.1.45-.19.9-.64,1-.45.1-.9-.19-1-.64-.15-.67-.75-1.15-1.44-1.15h-1.56c-.37,0-.76.15-1.03.42-.28.28-.43.65-.43,1.04s.15.76.43,1.04c.28.27.64.43,1.03.43h2.07c1.73,0,3.14,1.41,3.14,3.14,0,.84-.33,1.63-.92,2.22-.59.59-1.38.92-2.22.92Z"/>
      <path class="st0" d="M34.89,36.12h-2.06c-1.73,0-3.14-1.41-3.14-3.14,0-.46.37-.84.84-.84s.84.37.84.84c0,.81.66,1.46,1.46,1.46h2.06c.39,0,.76-.15,1.04-.43.28-.27.43-.64.43-1.03,0-.81-.66-1.46-1.47-1.46h-2.07c-.83,0-1.62-.33-2.22-.92-.6-.6-.92-1.39-.92-2.22,0-.24.02-.47.07-.68.31-1.42,1.59-2.46,3.05-2.46h1.57c1.47,0,2.76,1.04,3.07,2.47.1.45-.19.9-.64,1-.45.1-.9-.19-1-.64-.15-.67-.75-1.15-1.44-1.15h-1.56c-.68,0-1.28.48-1.42,1.15-.02.1-.03.2-.03.31,0,.39.15.76.43,1.04.27.27.64.42,1.03.42h2.07c1.73,0,3.14,1.41,3.14,3.14,0,.85-.33,1.64-.93,2.23-.6.59-1.39.92-2.22.92Z"/>
      <path class="st0" d="M45.35,36.11h-4.87c-.46,0-.84-.37-.84-.84v-9.21c0-.46.38-.84.84-.84s.84.37.84.84v8.38h4.04c.46,0,.84.37.84.84s-.38.84-.84.84Z"/>
    </g>
  </g>
</svg>