<?xml version="1.0" encoding="UTF-8"?>
<svg id="Layer_1" xmlns="http://www.w3.org/2000/svg" version="1.1" viewBox="0 0 64 64">
  <!-- Generator: Adobe Illustrator 29.8.1, SVG Export Plug-In . SVG Version: 2.1.1 Build 2)  -->
  <defs>
    <style>
      .st0 {
        fill: #324559;
      }

      .st1 {
        display: none;
        fill: #fff;
        stroke: #231f20;
        stroke-miterlimit: 10;
      }
    </style>
  </defs>
  <rect class="st1" x="14" y="14" width="36" height="36"/>
  <g>
    <g id="cards">
      <path class="st0" d="M39.36,50.25h-17.32c-2.26,0-4.1-1.84-4.1-4.1v-28.31c0-2.26,1.84-4.1,4.1-4.1h17.32c2.26,0,4.1,1.84,4.1,4.1v28.31c0,2.26-1.84,4.1-4.1,4.1ZM22.03,15.36c-1.37,0-2.48,1.11-2.48,2.48v28.31c0,1.37,1.11,2.48,2.48,2.48h17.32c1.37,0,2.48-1.11,2.48-2.48v-28.31c0-1.37-1.11-2.48-2.48-2.48h-17.32Z"/>
      <path class="st0" d="M38.96,50.25c-.45,0-.81-.36-.81-.81V14.55c0-.45.36-.81.81-.81s.81.36.81.81v34.89c0,.45-.36.81-.81.81Z"/>
      <path class="st0" d="M34.32,50.25c-.45,0-.81-.36-.81-.81v-31.92c0-.45.36-.81.81-.81s.81.36.81.81v31.92c0,.45-.36.81-.81.81Z"/>
    </g>
    <g>
      <path class="st0" d="M26.53,28.54c-.45,0-.81-.36-.81-.81s.36-.81.81-.81.81.36.81.81h0c0,.45-.36.82-.81.82Z"/>
      <path class="st0" d="M27.24,42.59c-.08,0-.17-.01-.25-.04l-2.57-.83c-.33-.11-.56-.42-.56-.77v-7.49h-1.58c-.45,0-.81-.36-.81-.81v-3.88c0-2.51,2.04-4.55,4.55-4.55h1c2.51,0,4.55,2.04,4.55,4.55v3.88c0,.45-.36.81-.81.81h-1.57v6.28c0,.34-.21.64-.52.76l-.63.24v1.04c0,.26-.12.5-.33.65-.14.1-.31.16-.48.16ZM25.48,40.37l.95.31v-.49c0-.34.21-.64.52-.76l.63-.24v-6.53c0-.45.36-.81.81-.81h1.57v-3.07c0-1.62-1.32-2.94-2.94-2.94h-1c-1.62,0-2.94,1.32-2.94,2.94v3.07h1.58c.45,0,.81.36.81.81v7.71Z"/>
    </g>
    <g>
      <path class="st0" d="M47.1,23.17c-.45,0-.81-.36-.81-.81v-1.59c0-.45.36-.81.81-.81s.81.36.81.81v1.59c0,.45-.36.81-.81.81Z"/>
      <path class="st0" d="M47.1,28.39c-.45,0-.81-.36-.81-.81v-1.59c0-.45.36-.81.81-.81s.81.36.81.81v1.59c0,.45-.36.81-.81.81Z"/>
      <path class="st0" d="M47.1,33.6c-.45,0-.81-.36-.81-.81v-1.59c0-.45.36-.81.81-.81s.81.36.81.81v1.59c0,.45-.36.81-.81.81Z"/>
      <path class="st0" d="M47.1,38.82c-.45,0-.81-.36-.81-.81v-1.59c0-.45.36-.81.81-.81s.81.36.81.81v1.59c0,.45-.36.81-.81.81Z"/>
      <path class="st0" d="M47.1,44.03c-.45,0-.81-.36-.81-.81v-1.59c0-.45.36-.81.81-.81s.81.36.81.81v1.59c0,.45-.36.81-.81.81Z"/>
    </g>
  </g>
</svg>