<?xml version="1.0" encoding="UTF-8"?>
<svg id="Layer_1" xmlns="http://www.w3.org/2000/svg" version="1.1" viewBox="0 0 64 64">
  <!-- Generator: Adobe Illustrator 29.8.1, SVG Export Plug-In . SVG Version: 2.1.1 Build 2)  -->
  <defs>
    <style>
      .st0 {
        fill: #324559;
      }

      .st1 {
        display: none;
        fill: #fff;
        stroke: #231f20;
        stroke-miterlimit: 10;
      }
    </style>
  </defs>
  <rect class="st1" x="14" y="14" width="36" height="36"/>
  <g>
    <g>
      <path class="st0" d="M31.91,56.31c-.16,0-.32-.04-.46-.12l-9.89-5.74c-4.83-2.81-7.71-8.16-7.52-13.98l.65-19.97c.02-.49.42-.88.91-.88h7.94l7.89-4.85c.29-.18.66-.18.96,0l7.89,4.85h7.94c.49,0,.9.39.91.88l.65,19.97c.19,5.82-2.69,11.17-7.52,13.98l-9.89,5.74c-.14.08-.3.12-.46.12ZM16.49,17.44l-.62,19.09c-.17,5.14,2.37,9.87,6.61,12.34l9.43,5.48,9.43-5.48c4.25-2.47,6.78-7.2,6.61-12.34l-.62-19.09h-7.31c-.17,0-.33-.05-.48-.14l-7.63-4.69-7.63,4.69c-.14.09-.31.14-.48.14h-7.31Z"/>
      <path class="st0" d="M31.91,51.36c-.16,0-.32-.04-.46-.12l-7.74-4.49c-3.46-2.01-5.53-5.9-5.39-10.14l.52-15.83c.02-.49.42-.88.91-.88h5.23l6.47-3.8c.29-.17.64-.17.92,0l6.47,3.8h5.23c.49,0,.9.39.91.88l.52,15.83c.14,4.24-1.93,8.13-5.39,10.14l-7.74,4.5c-.14.08-.3.12-.46.12ZM20.63,21.72l-.49,14.95c-.12,3.57,1.6,6.83,4.49,8.5l7.28,4.23,7.28-4.23c2.88-1.68,4.6-4.93,4.49-8.5l-.49-14.95h-4.59c-.16,0-.32-.04-.46-.13l-6.22-3.65-6.23,3.65c-.14.08-.3.13-.46.13h-4.59Z"/>
    </g>
    <g>
      <path class="st0" d="M36.06,32.99c-.5,0-.91-.41-.91-.91v-4.15c0-1.79-1.45-3.24-3.24-3.24s-3.24,1.45-3.24,3.24v4.15c0,.5-.41.91-.91.91s-.91-.41-.91-.91v-4.15c0-2.79,2.27-5.07,5.07-5.07s5.07,2.27,5.07,5.07v4.15c0,.5-.41.91-.91.91Z"/>
      <path class="st0" d="M31.94,43.73c-.12,0-.25-.02-.36-.08l-6.8-2.95c-.33-.15-.55-.47-.55-.84v-7.41c0-.5.41-.91.91-.91h13.53c.5,0,.91.41.91.91v7.41c0,.36-.21.69-.55.84l-6.73,2.95c-.12.05-.24.08-.37.08ZM26.05,39.27l5.89,2.56,5.82-2.55v-5.9h-11.71v5.89Z"/>
      <path class="st0" d="M31.91,38.44c-.5,0-.91-.41-.91-.91v-.67c0-.5.41-.91.91-.91s.91.41.91.91v.67c0,.5-.41.91-.91.91Z"/>
    </g>
  </g>
</svg>