<?xml version="1.0" encoding="UTF-8"?>
<svg id="Layer_1" xmlns="http://www.w3.org/2000/svg" version="1.1" viewBox="0 0 64 64">
  <!-- Generator: Adobe Illustrator 29.8.1, SVG Export Plug-In . SVG Version: 2.1.1 Build 2)  -->
  <defs>
    <style>
      .st0 {
        fill: #324559;
      }

      .st1 {
        display: none;
        fill: #fff;
        stroke: #231f20;
        stroke-miterlimit: 10;
      }
    </style>
  </defs>
  <rect class="st1" x="14" y="14" width="36" height="36"/>
  <g>
    <g>
      <g>
        <path class="st0" d="M36.06,24.79h-7.8c-.42,0-.76-.34-.76-.76s.34-.76.76-.76h7.8c.42,0,.76.34.76.76s-.34.76-.76.76Z"/>
        <path class="st0" d="M38.2,20.94h-12.08c-.42,0-.76-.34-.76-.76s.34-.76.76-.76h12.08c.42,0,.76.34.76.76s-.34.76-.76.76Z"/>
        <path class="st0" d="M38.37,28.64h-14.14c-.42,0-.76-.34-.76-.76s.34-.76.76-.76h14.14c.42,0,.76.34.76.76s-.34.76-.76.76Z"/>
        <path class="st0" d="M33.75,32.48h-9.52c-.42,0-.76-.34-.76-.76s.34-.76.76-.76h9.52c.42,0,.76.34.76.76s-.34.76-.76.76Z"/>
        <path class="st0" d="M33.11,36.33h-8.88c-.42,0-.76-.34-.76-.76s.34-.76.76-.76h8.88c.42,0,.76.34.76.76s-.34.76-.76.76Z"/>
        <path class="st0" d="M30.38,40.18h-6.15c-.42,0-.76-.34-.76-.76s.34-.76.76-.76h6.15c.42,0,.76.34.76.76s-.34.76-.76.76Z"/>
        <path class="st0" d="M30.38,44.02h-6.15c-.42,0-.76-.34-.76-.76s.34-.76.76-.76h6.15c.42,0,.76.34.76.76s-.34.76-.76.76Z"/>
      </g>
      <path class="st0" d="M36.41,47.43h-15.05c-1.92,0-3.48-1.56-3.48-3.48v-26.01c0-1.92,1.56-3.48,3.48-3.48h20.87c1.92,0,3.48,1.56,3.48,3.48v13c0,.42-.34.76-.76.76s-.76-.34-.76-.76v-13c0-1.08-.88-1.96-1.96-1.96h-20.87c-1.08,0-1.96.88-1.96,1.96v26.01c0,1.08.88,1.96,1.96,1.96h15.05c.42,0,.76.34.76.76s-.34.76-.76.76Z"/>
    </g>
    <path class="st0" d="M40.58,49.55c-.12,0-.24-.03-.35-.09l-4.69-2.45c-2.19-1.15-3.5-3.36-3.4-5.78l.34-9.37c.01-.35.26-.64.6-.72l7.34-1.6c.11-.02.22-.02.32,0l7.34,1.6c.34.07.59.37.6.72l.34,9.37c.09,2.41-1.21,4.62-3.39,5.77l-4.69,2.46c-.11.06-.23.09-.35.09ZM33.98,32.51l-.32,8.78c-.07,1.82.92,3.49,2.58,4.37l4.33,2.27,4.34-2.27c1.66-.87,2.65-2.55,2.58-4.36l-.32-8.78-6.6-1.44-6.6,1.44Z"/>
    <path class="st0" d="M40.56,42.11c-.2,0-.39-.08-.53-.22l-3.17-3.08c-.3-.29-.31-.78-.01-1.08.29-.3.78-.31,1.08-.01l2.6,2.53,3.79-4.18c.28-.31.77-.34,1.08-.05.31.28.34.77.05,1.08l-4.32,4.76c-.14.15-.33.24-.54.25,0,0-.02,0-.02,0Z"/>
  </g>
</svg>