<?xml version="1.0" encoding="UTF-8"?>
<svg xmlns="http://www.w3.org/2000/svg" xmlns:xlink="http://www.w3.org/1999/xlink" version="1.1" viewBox="0 0 64 64">
  <!-- Generator: Adobe Illustrator 29.8.1, SVG Export Plug-In . SVG Version: 2.1.1 Build 2)  -->
  <defs>
    <style>
      .st0 {
        fill: #fafafa;
        opacity: 0;
      }

      .st1 {
        fill: #777c8b;
        opacity: .41;
      }

      .st2 {
        fill: #f6f6f7;
        opacity: .01;
      }

      .st3 {
        fill: #7d8291;
        opacity: .38;
      }

      .st4 {
        fill: #d2d2d7;
        opacity: .1;
      }

      .st5 {
        fill: #5d6577;
        opacity: .52;
      }

      .st6 {
        fill: #787c8c;
        opacity: .4;
      }

      .st7 {
        fill: #35475b;
        opacity: .69;
      }

      .st8 {
        fill: #576072;
        opacity: .54;
      }

      .st9 {
        fill: #3b4c5f;
        opacity: .66;
      }

      .st10 {
        fill: #9b9da9;
        opacity: .27;
      }

      .st11 {
        fill: #c4c4cc;
        opacity: .14;
      }

      .st12 {
        fill: #8b8f9c;
        opacity: .33;
      }

      .st13 {
        fill: #7a7f8e;
        opacity: .39;
      }

      .st14 {
        fill: #3f4e61;
        opacity: .65;
      }

      .st15 {
        fill: #d5d5da;
        opacity: .09;
      }

      .st16 {
        fill: #727787;
        opacity: .43;
      }

      .st17 {
        fill: #d0d1d6;
        opacity: .11;
      }

      .st18 {
        fill: #dfdfe2;
        opacity: .07;
      }

      .st19 {
        fill: #9497a4;
        opacity: .3;
      }

      .st20 {
        fill: #e5e5e8;
        opacity: .05;
      }

      .st21 {
        fill: #b9bac3;
        opacity: .17;
      }

      .st22 {
        fill: #8d909e;
        opacity: .32;
      }

      .st23 {
        fill: #62697a;
        opacity: .5;
      }

      .st24 {
        fill: #bebec6;
        opacity: .16;
      }

      .st25 {
        fill: #ebeaec;
        opacity: .04;
      }

      .st26 {
        fill: #858997;
        opacity: .35;
      }

      .st27 {
        fill: #9294a2;
        opacity: .31;
      }

      .st28 {
        fill: #ccccd2;
        opacity: .12;
      }

      .st29 {
        fill: #35485b;
        opacity: .69;
      }

      .st30 {
        fill: #f2f2f3;
        opacity: .02;
      }

      .st31 {
        fill: #adaeb8;
        opacity: .21;
      }

      .st32 {
        fill: #6b7182;
        opacity: .46;
      }

      .st33 {
        fill: #b4b5be;
        opacity: .19;
      }

      .st34 {
        fill: #a2a4af;
        opacity: .25;
      }

      .st35 {
        fill: #9194a1;
        opacity: .31;
      }

      .st36 {
        fill: #7d8190;
        opacity: .38;
      }

      .st37 {
        fill: #818594;
        opacity: .37;
      }

      .st38 {
        fill: #535d6f;
        opacity: .56;
      }

      .st39 {
        fill: #757a8a;
        opacity: .41;
      }

      .st40 {
        fill: #aaabb6;
        opacity: .22;
      }

      .st41 {
        fill: #c2c2ca;
        opacity: .15;
      }

      .st42 {
        fill: #737888;
        opacity: .42;
      }

      .st43 {
        fill: #5f6678;
        opacity: .51;
      }

      .st44 {
        fill: #666d7e;
        opacity: .48;
      }

      .st45 {
        fill: #5a6374;
        opacity: .53;
      }

      .st46 {
        fill: #b8b9c2;
        opacity: .18;
      }

      .st47 {
        fill: #36485c;
        opacity: .68;
      }

      .st48 {
        fill: #dadade;
        opacity: .08;
      }

      .st49 {
        fill: #505b6d;
        opacity: .57;
      }

      .st50 {
        fill: #e8e8ea;
        opacity: .04;
      }

      .st51 {
        fill: #8c8f9d;
        opacity: .33;
      }

      .st52 {
        fill: #686e7f;
        opacity: .47;
      }

      .st53 {
        fill: #465366;
        opacity: .61;
      }

      .st54 {
        fill: #515b6e;
        opacity: .57;
      }

      .st55 {
        fill: #384a5d;
        opacity: .67;
      }

      .st56 {
        fill: #c5c6cd;
        opacity: .14;
      }

      .st57 {
        fill: #a7a8b3;
        opacity: .23;
      }

      .st58 {
        fill: #d6d6db;
        opacity: .09;
      }

      .st59 {
        fill: #7b7f8f;
        opacity: .39;
      }

      .st60 {
        fill: #9a9ca9;
        opacity: .28;
      }

      .st61 {
        fill: #767b8b;
        opacity: .41;
      }

      .st62 {
        fill: #dbdbdf;
        opacity: .08;
      }

      .st63 {
        opacity: .7;
      }

      .st63, .st64 {
        fill: #324559;
      }

      .st65 {
        fill: #404f62;
        opacity: .64;
      }

      .st66 {
        fill: #e0e0e3;
        opacity: .06;
      }

      .st67 {
        fill: #e7e6e9;
        opacity: .05;
      }

      .st68 {
        fill: #ceced4;
        opacity: .11;
      }

      .st69 {
        fill: #9fa1ad;
        opacity: .26;
      }

      .st70 {
        fill: #606879;
        opacity: .5;
      }

      .st71 {
        fill: #aeafb9;
        opacity: .21;
      }

      .st72 {
        fill: #6f7485;
        opacity: .44;
      }

      .st73 {
        fill: #656b7d;
        opacity: .48;
      }

      .st74 {
        fill: #a5a6b1;
        opacity: .24;
      }

      .st75 {
        fill: #d4d4d9;
        opacity: .1;
      }

      .st76 {
        fill: #d8d7dc;
        opacity: .09;
      }

      .st77 {
        isolation: isolate;
      }

      .st78 {
        fill: #7f8392;
        opacity: .37;
      }

      .st79 {
        fill: #f4f4f5;
        opacity: .02;
      }

      .st80 {
        fill: #dddce0;
        opacity: .07;
      }

      .st81 {
        fill: #7c808f;
        opacity: .39;
      }

      .st82 {
        opacity: .6;
      }

      .st82, .st83 {
        fill: #495568;
      }

      .st83 {
        opacity: .6;
      }

      .st84 {
        fill: #37495c;
        opacity: .68;
      }

      .st85 {
        fill: #8f929f;
        opacity: .32;
      }

      .st86 {
        fill: #bcbdc5;
        opacity: .16;
      }

      .st87 {
        fill: #c7c8ce;
        opacity: .13;
      }

      .st88 {
        fill: #868a98;
        opacity: .35;
      }

      .st89 {
        fill: #a8a9b4;
        opacity: .23;
      }

      .st90 {
        fill: #717687;
        opacity: .43;
      }

      .st91 {
        fill: #afb0ba;
        opacity: .21;
      }

      .st92 {
        fill: #b0b1bb;
        opacity: .2;
      }

      .st93 {
        fill: #9496a3;
        opacity: .3;
      }

      .st94 {
        fill: #989ba7;
        opacity: .28;
      }

      .st95 {
        fill: #5f6778;
        opacity: .51;
      }

      .st96 {
        fill: #808493;
        opacity: .37;
      }

      .st97 {
        fill: #61687a;
        opacity: .5;
      }

      .st98 {
        fill: #34475a;
        opacity: .69;
      }

      .st99 {
        fill: #838796;
        opacity: .36;
      }

      .st100 {
        fill: #eeedef;
        opacity: .03;
      }

      .st101 {
        fill: #a3a5b0;
        opacity: .25;
      }

      .st102 {
        fill: #cbcbd1;
        opacity: .12;
      }

      .st103 {
        fill: #8e919f;
        opacity: .32;
      }

      .st104 {
        fill: #848896;
        opacity: .35;
      }

      .st105 {
        fill: #62697b;
        opacity: .49;
      }

      .st106 {
        fill: #3b4b5f;
        opacity: .66;
      }

      .st107 {
        fill: #4e596b;
        opacity: .58;
      }

      .st108 {
        fill: #414f63;
        opacity: .64;
      }

      .st109 {
        fill: #5c6476;
        opacity: .52;
      }

      .st110 {
        fill: #f1f0f2;
        opacity: .02;
      }

      .st111 {
        fill: #a4a6b1;
        opacity: .24;
      }

      .st112 {
        opacity: 0;
      }

      .st112, .st113 {
        fill: #fff;
      }

      .st114 {
        fill: #555e70;
        opacity: .55;
      }

      .st115 {
        fill: #525c6e;
        opacity: .57;
      }

      .st116 {
        mix-blend-mode: multiply;
      }

      .st116, .st117, .st113 {
        display: none;
      }

      .st118 {
        fill: #3c4c60;
        opacity: .66;
      }

      .st119 {
        fill: #3d4d60;
        opacity: .65;
      }

      .st120 {
        fill: #9598a5;
        opacity: .29;
      }

      .st121 {
        fill: #797e8d;
        opacity: .4;
      }

      .st122 {
        fill: #33465a;
        opacity: .7;
      }

      .st123 {
        fill: #9ea0ac;
        opacity: .26;
      }

      .st124 {
        fill: #cfcfd5;
        opacity: .11;
      }

      .st125 {
        fill: #a1a3ae;
        opacity: .25;
      }

      .st126 {
        fill: #9093a0;
        opacity: .31;
      }

      .st127 {
        fill: #898c9a;
        opacity: .34;
      }

      .st128 {
        fill: #c6c7cd;
        opacity: .13;
      }

      .st129 {
        fill: #b1b2bb;
        opacity: .2;
      }

      .st130 {
        fill: #9395a2;
        opacity: .3;
      }

      .st131 {
        fill: #6e7484;
        opacity: .44;
      }

      .st132 {
        fill: #bfbfc7;
        opacity: .16;
      }

      .st133 {
        fill: #485467;
        opacity: .61;
      }

      .st134 {
        opacity: .58;
      }

      .st134, .st135 {
        fill: #4f5a6c;
      }

      .st135 {
        opacity: .58;
      }

      .st136 {
        fill: #b7b8c1;
        opacity: .18;
      }

      .st137 {
        fill: #787d8d;
        opacity: .4;
      }

      .st138 {
        fill: #d3d3d8;
        opacity: .1;
      }

      .st139 {
        fill: #c0c0c8;
        opacity: .15;
      }

      .st140 {
        fill: #565f71;
        opacity: .55;
      }

      .st117 {
        fill: url(#linear-gradient);
      }

      .st141 {
        fill: #8a8d9b;
        opacity: .34;
      }

      .st142 {
        fill: #3e4d61;
        opacity: .65;
      }

      .st143 {
        opacity: .42;
      }

      .st143, .st144 {
        fill: #747989;
      }

      .st144 {
        opacity: .42;
      }

      .st145 {
        fill: #4c576a;
        opacity: .59;
      }

      .st146 {
        fill: #3f4e62;
        opacity: .64;
      }

      .st147 {
        fill: #8a8e9c;
        opacity: .33;
      }

      .st148 {
        fill: #6d7283;
        opacity: .45;
      }

      .st149 {
        fill: #6d7383;
        opacity: .45;
      }

      .st150 {
        fill: #c8c9cf;
        opacity: .13;
      }

      .st151 {
        fill: #9699a5;
        opacity: .29;
      }

      .st152 {
        fill: #c3c3cb;
        opacity: .14;
      }

      .st113 {
        stroke: #231f20;
        stroke-miterlimit: 10;
      }

      .st153 {
        fill: #838695;
        opacity: .36;
      }

      .st154 {
        fill: #efeff0;
        opacity: .03;
      }

      .st155 {
        fill: #c9cad0;
        opacity: .12;
      }

      .st156 {
        fill: #555f71;
        opacity: .55;
      }

      .st157 {
        fill: #9c9eaa;
        opacity: .27;
      }

      .st158 {
        fill: #d9d9dd;
        opacity: .08;
      }

      .st159 {
        fill: #b3b4bd;
        opacity: .19;
      }

      .st160 {
        fill: #7e8291;
        opacity: .38;
      }

      .st161 {
        fill: #bbbcc4;
        opacity: .17;
      }

      .st162 {
        fill: #e3e2e5;
        opacity: .06;
      }

      .st163 {
        fill: #38495d;
        opacity: .68;
      }

      .st164 {
        fill: #4c586a;
        opacity: .59;
      }

      .st165 {
        fill: #878a99;
        opacity: .35;
      }

      .st166 {
        fill: #9d9fab;
        opacity: .27;
      }

      .st167 {
        fill: #cdcdd3;
        opacity: .12;
      }

      .st168 {
        fill: #999ba8;
        opacity: .28;
      }

      .st169 {
        fill: #abacb6;
        opacity: .22;
      }

      .st170 {
        fill: #455265;
        opacity: .62;
      }

      .st171 {
        fill: #ececee;
        opacity: .03;
      }

      .st172 {
        fill: #707686;
        opacity: .43;
      }

      .st173 {
        fill: #c1c1c9;
        opacity: .15;
      }

      .st174 {
        fill: #5b6375;
        opacity: .53;
      }

      .st175 {
        fill: #4d586b;
        opacity: .58;
      }

      .st176 {
        fill: #5c6475;
        opacity: .52;
      }

      .st177 {
        fill: #e9e9eb;
        opacity: .04;
      }

      .st178 {
        fill: #435164;
        opacity: .63;
      }

      .st179 {
        fill: #676d7e;
        opacity: .47;
      }

      .st180 {
        fill: #5e6677;
        opacity: .51;
      }

      .st181 {
        fill: #3a4b5e;
        opacity: .67;
      }

      .st182 {
        fill: #828694;
        opacity: .36;
      }

      .st183 {
        fill: #707585;
        opacity: .44;
      }

      .st184 {
        fill: #646b7c;
        opacity: .49;
      }

      .st185 {
        fill: #888b99;
        opacity: .34;
      }

      .st186 {
        fill: #a0a2ad;
        opacity: .26;
      }

      .st187 {
        fill: #babbc3;
        opacity: .17;
      }

      .st188 {
        fill: #4b5769;
        opacity: .59;
      }

      .st189 {
        fill: #a6a7b2;
        opacity: .24;
      }

      .st190 {
        fill: #455366;
        opacity: .62;
      }

      .st191 {
        fill: #425063;
        opacity: .63;
      }

      .st192 {
        fill: #a9aab5;
        opacity: .23;
      }

      .st193 {
        fill: #596274;
        opacity: .53;
      }

      .st194 {
        fill: #acadb7;
        opacity: .22;
      }

      .st195 {
        fill: #425164;
        opacity: .63;
      }

      .st196 {
        opacity: .46;
      }

      .st196, .st197 {
        fill: #696f80;
      }

      .st197 {
        opacity: .47;
      }

      .st198 {
        fill: #fcfcfd;
        opacity: 0;
      }

      .st199 {
        fill: #636a7b;
        opacity: .49;
      }

      .st200 {
        fill: #e4e4e6;
        opacity: .05;
      }

      .st201 {
        fill: #dedde1;
        opacity: .07;
      }

      .st202 {
        fill: #b5b6bf;
        opacity: .19;
      }

      .st203 {
        fill: #6c7282;
        opacity: .45;
      }

      .st204 {
        fill: #f8f8f8;
        opacity: 0;
      }

      .st205 {
        fill: #4a5669;
        opacity: .6;
      }

      .st206 {
        fill: #979aa6;
        opacity: .29;
      }

      .st207 {
        fill: #475467;
        opacity: .61;
      }

      .st208 {
        fill: #666c7d;
        opacity: .48;
      }

      .st209 {
        fill: #445265;
        opacity: .62;
      }

      .st210 {
        fill: #545e70;
        opacity: .56;
      }

      .st211 {
        opacity: .54;
      }

      .st211, .st212 {
        fill: #586173;
      }

      .st212 {
        opacity: .54;
      }

      .st213 {
        fill: #6a7081;
        opacity: .46;
      }

      .st214 {
        fill: #525c6f;
        opacity: .56;
      }

      .st215 {
        fill: #b6b7c0;
        opacity: .18;
      }

      .st216 {
        fill: #e2e1e4;
        opacity: .06;
      }

      .st217 {
        fill: #b2b3bc;
        opacity: .2;
      }

      .st218 {
        fill: #394a5e;
        opacity: .67;
      }
    </style>
    <linearGradient id="linear-gradient" x1="6671.85" y1="-398.24" x2="6739.19" y2="-398.24" gradientTransform="translate(-366.24 -6674.24) rotate(90)" gradientUnits="userSpaceOnUse">
      <stop offset="0" stop-color="#fff"/>
      <stop offset=".29" stop-color="#fafafb"/>
      <stop offset=".6" stop-color="#edeef1"/>
      <stop offset=".94" stop-color="#d7dae1"/>
      <stop offset="1" stop-color="#d2d6de"/>
    </linearGradient>
  </defs>
  <g class="st77">
    <g id="Layer_1">
      <rect class="st113" x="14" y="14" width="36" height="36"/>
      <g>
        <g class="st116">
          <circle class="st112" cx="32" cy="42.26" r="38.91"/>
          <circle class="st198" cx="32" cy="42.25" r="38.84"/>
          <circle class="st0" cx="32" cy="42.24" r="38.77" transform="translate(-10.29 74.18) rotate(-89.91)"/>
          <circle class="st204" cx="32" cy="42.23" r="38.7" transform="translate(-10.31 74.13) rotate(-89.86)"/>
          <circle class="st2" cx="32" cy="42.22" r="38.63" transform="translate(-10.32 74.09) rotate(-89.82)"/>
          <circle class="st79" cx="32" cy="42.21" r="38.56" transform="translate(-10.34 74.04) rotate(-89.77)"/>
          <circle class="st30" cx="32" cy="42.2" r="38.49" transform="translate(-10.35 74) rotate(-89.73)"/>
          <circle class="st110" cx="32" cy="42.19" r="38.42" transform="translate(-10.37 73.96) rotate(-89.68)"/>
          <circle class="st154" cx="32" cy="42.18" r="38.35" transform="translate(-10.38 73.91) rotate(-89.64)"/>
          <circle class="st100" cx="32" cy="42.17" r="38.28" transform="translate(-10.4 73.87) rotate(-89.59)"/>
          <circle class="st171" cx="32" cy="42.16" r="38.21" transform="translate(-10.41 73.83) rotate(-89.54)"/>
          <circle class="st25" cx="32" cy="42.15" r="38.14" transform="translate(-10.43 73.78) rotate(-89.5)"/>
          <circle class="st177" cx="32" cy="42.14" r="38.07" transform="translate(-10.45 73.74) rotate(-89.45)"/>
          <circle class="st50" cx="32" cy="42.13" r="38" transform="translate(-10.46 73.69) rotate(-89.41)"/>
          <circle class="st67" cx="32" cy="42.12" r="37.94" transform="translate(-10.48 73.65) rotate(-89.36)"/>
          <circle class="st20" cx="32" cy="42.11" r="37.87" transform="translate(-10.49 73.6) rotate(-89.31)"/>
          <circle class="st200" cx="32" cy="42.1" r="37.8" transform="translate(-10.51 73.56) rotate(-89.26)"/>
          <circle class="st162" cx="32" cy="42.09" r="37.73" transform="translate(-10.52 73.51) rotate(-89.22)"/>
          <circle class="st216" cx="32" cy="42.08" r="37.66" transform="translate(-10.54 73.47) rotate(-89.17)"/>
          <circle class="st66" cx="32" cy="42.07" r="37.59" transform="translate(-10.56 73.42) rotate(-89.12)"/>
          <circle class="st18" cx="32" cy="42.06" r="37.52" transform="translate(-10.57 73.38) rotate(-89.07)"/>
          <circle class="st201" cx="32" cy="42.05" r="37.45" transform="translate(-10.59 73.33) rotate(-89.03)"/>
          <circle class="st80" cx="32" cy="42.04" r="37.38" transform="translate(-10.6 73.29) rotate(-88.98)"/>
          <circle class="st62" cx="32" cy="42.03" r="37.31" transform="translate(-10.62 73.24) rotate(-88.93)"/>
          <circle class="st48" cx="32" cy="42.02" r="37.24" transform="translate(-10.64 73.2) rotate(-88.88)"/>
          <circle class="st158" cx="32" cy="42.01" r="37.17" transform="translate(-10.65 73.15) rotate(-88.83)"/>
          <circle class="st76" cx="32" cy="42" r="37.1" transform="translate(-10.67 73.1) rotate(-88.79)"/>
          <circle class="st58" cx="32" cy="41.99" r="37.03" transform="translate(-10.69 73.06) rotate(-88.74)"/>
          <circle class="st15" cx="32" cy="41.98" r="36.96" transform="translate(-10.7 73.01) rotate(-88.69)"/>
          <circle class="st75" cx="32" cy="41.97" r="36.89" transform="translate(-10.72 72.96) rotate(-88.64)"/>
          <circle class="st138" cx="32" cy="41.96" r="36.82" transform="translate(-10.74 72.92) rotate(-88.59)"/>
          <circle class="st4" cx="32" cy="41.95" r="36.75" transform="translate(-10.75 72.87) rotate(-88.54)"/>
          <circle class="st17" cx="32" cy="41.94" r="36.68" transform="translate(-10.77 72.82) rotate(-88.49)"/>
          <circle class="st124" cx="32" cy="41.93" r="36.61" transform="translate(-10.79 72.78) rotate(-88.44)"/>
          <circle class="st68" cx="32" cy="41.92" r="36.54" transform="translate(-10.8 72.73) rotate(-88.39)"/>
          <circle class="st167" cx="32" cy="41.91" r="36.48" transform="translate(-10.82 72.68) rotate(-88.34)"/>
          <circle class="st28" cx="32" cy="41.9" r="36.41" transform="translate(-10.84 72.64) rotate(-88.29)"/>
          <circle class="st102" cx="32" cy="41.89" r="36.34" transform="translate(-10.85 72.59) rotate(-88.24)"/>
          <circle class="st155" cx="32" cy="41.88" r="36.27" transform="translate(-10.87 72.54) rotate(-88.19)"/>
          <circle class="st150" cx="32" cy="41.87" r="36.2" transform="translate(-10.89 72.49) rotate(-88.14)"/>
          <circle class="st87" cx="32" cy="41.86" r="36.13" transform="translate(-10.9 72.45) rotate(-88.09)"/>
          <circle class="st128" cx="32" cy="41.85" r="36.06" transform="translate(-10.92 72.4) rotate(-88.04)"/>
          <circle class="st56" cx="32" cy="41.84" r="35.99" transform="translate(-10.94 72.35) rotate(-87.99)"/>
          <circle class="st11" cx="32" cy="41.83" r="35.92" transform="translate(-10.95 72.3) rotate(-87.94)"/>
          <circle class="st152" cx="32" cy="41.82" r="35.85" transform="translate(-10.97 72.25) rotate(-87.89)"/>
          <circle class="st41" cx="32" cy="41.81" r="35.78" transform="translate(-10.99 72.21) rotate(-87.83)"/>
          <circle class="st173" cx="32" cy="41.8" r="35.71" transform="translate(-11.01 72.16) rotate(-87.78)"/>
          <circle class="st139" cx="32" cy="41.79" r="35.64" transform="translate(-11.02 72.11) rotate(-87.73)"/>
          <circle class="st132" cx="32" cy="41.78" r="35.57" transform="translate(-11.04 72.06) rotate(-87.68)"/>
          <circle class="st24" cx="32" cy="41.77" r="35.5" transform="translate(-11.06 72.01) rotate(-87.63)"/>
          <circle class="st86" cx="32" cy="41.76" r="35.43" transform="translate(-11.08 71.96) rotate(-87.57)"/>
          <circle class="st161" cx="32" cy="41.75" r="35.36" transform="translate(-11.09 71.91) rotate(-87.52)"/>
          <circle class="st187" cx="32" cy="41.74" r="35.29" transform="translate(-11.11 71.86) rotate(-87.47)"/>
          <circle class="st21" cx="32" cy="41.73" r="35.22" transform="translate(-11.13 71.82) rotate(-87.42)"/>
          <circle class="st46" cx="32" cy="41.72" r="35.15" transform="translate(-11.15 71.77) rotate(-87.36)"/>
          <circle class="st136" cx="32" cy="41.71" r="35.08" transform="translate(-11.17 71.72) rotate(-87.31)"/>
          <circle class="st215" cx="32" cy="41.7" r="35.02" transform="translate(-11.18 71.67) rotate(-87.26)"/>
          <circle class="st202" cx="32" cy="41.69" r="34.95" transform="translate(-11.2 71.62) rotate(-87.2)"/>
          <circle class="st33" cx="32" cy="41.68" r="34.88" transform="translate(-11.22 71.57) rotate(-87.15)"/>
          <circle class="st159" cx="32" cy="41.67" r="34.81" transform="translate(-11.24 71.52) rotate(-87.1)"/>
          <circle class="st217" cx="32" cy="41.66" r="34.74" transform="translate(-11.25 71.47) rotate(-87.04)"/>
          <circle class="st129" cx="32" cy="41.65" r="34.67" transform="translate(-11.27 71.42) rotate(-86.99)"/>
          <circle class="st92" cx="32" cy="41.64" r="34.6" transform="translate(-11.29 71.37) rotate(-86.93)"/>
          <circle class="st91" cx="32" cy="41.63" r="34.53" transform="translate(-11.31 71.32) rotate(-86.88)"/>
          <circle class="st71" cx="32" cy="41.62" r="34.46" transform="translate(-11.33 71.26) rotate(-86.82)"/>
          <circle class="st31" cx="32" cy="41.61" r="34.39" transform="translate(-11.35 71.21) rotate(-86.77)"/>
          <circle class="st194" cx="32" cy="41.6" r="34.32" transform="translate(-11.36 71.16) rotate(-86.71)"/>
          <circle class="st169" cx="32" cy="41.59" r="34.25" transform="translate(-11.38 71.11) rotate(-86.66)"/>
          <circle class="st40" cx="32" cy="41.58" r="34.18" transform="translate(-11.4 71.06) rotate(-86.6)"/>
          <circle class="st192" cx="32" cy="41.57" r="34.11" transform="translate(-11.42 71.01) rotate(-86.55)"/>
          <circle class="st89" cx="32" cy="41.56" r="34.04" transform="translate(-11.44 70.96) rotate(-86.49)"/>
          <circle class="st57" cx="32" cy="41.55" r="33.97" transform="translate(-11.46 70.91) rotate(-86.44)"/>
          <circle class="st189" cx="32" cy="41.54" r="33.9" transform="translate(-11.48 70.85) rotate(-86.38)"/>
          <circle class="st74" cx="32" cy="41.53" r="33.83" transform="translate(-11.49 70.8) rotate(-86.33)"/>
          <circle class="st111" cx="32" cy="41.52" r="33.76" transform="translate(-11.51 70.75) rotate(-86.27)"/>
          <circle class="st101" cx="32" cy="41.51" r="33.69" transform="translate(-11.53 70.7) rotate(-86.21)"/>
          <circle class="st34" cx="32" cy="41.5" r="33.62" transform="translate(-11.55 70.64) rotate(-86.16)"/>
          <circle class="st125" cx="32" cy="41.49" r="33.56" transform="translate(-11.57 70.59) rotate(-86.1)"/>
          <circle class="st186" cx="32" cy="41.48" r="33.49" transform="translate(-11.59 70.54) rotate(-86.04)"/>
          <circle class="st69" cx="32" cy="41.47" r="33.42" transform="translate(-11.61 70.49) rotate(-85.99)"/>
          <circle class="st123" cx="32" cy="41.46" r="33.35" transform="translate(-11.63 70.43) rotate(-85.93)"/>
          <circle class="st166" cx="32" cy="41.45" r="33.28" transform="translate(-11.65 70.38) rotate(-85.87)"/>
          <circle class="st157" cx="32" cy="41.44" r="33.21" transform="translate(-11.66 70.33) rotate(-85.81)"/>
          <circle class="st10" cx="32" cy="41.43" r="33.14" transform="translate(-11.68 70.27) rotate(-85.75)"/>
          <circle class="st60" cx="32" cy="41.42" r="33.07" transform="translate(-11.7 70.22) rotate(-85.7)"/>
          <circle class="st168" cx="32" cy="41.41" r="33" transform="translate(-11.72 70.17) rotate(-85.64)"/>
          <circle class="st94" cx="32" cy="41.4" r="32.93" transform="translate(-11.74 70.11) rotate(-85.58)"/>
          <circle class="st206" cx="32" cy="41.39" r="32.86" transform="translate(-11.76 70.06) rotate(-85.52)"/>
          <circle class="st151" cx="32" cy="41.38" r="32.79" transform="translate(-11.78 70) rotate(-85.46)"/>
          <circle class="st120" cx="32" cy="41.37" r="32.72" transform="translate(-11.8 69.95) rotate(-85.4)"/>
          <circle class="st19" cx="32" cy="41.36" r="32.65" transform="translate(-11.82 69.9) rotate(-85.35)"/>
          <circle class="st93" cx="32" cy="41.35" r="32.58" transform="translate(-11.84 69.84) rotate(-85.29)"/>
          <circle class="st130" cx="32" cy="41.34" r="32.51" transform="translate(-11.86 69.79) rotate(-85.23)"/>
          <circle class="st27" cx="32" cy="41.33" r="32.44" transform="translate(-11.88 69.73) rotate(-85.17)"/>
          <circle class="st35" cx="32" cy="41.32" r="32.37" transform="translate(-11.9 69.68) rotate(-85.11)"/>
          <circle class="st126" cx="32" cy="41.31" r="32.3" transform="translate(-11.92 69.62) rotate(-85.05)"/>
          <circle class="st85" cx="32" cy="41.3" r="32.23" transform="translate(-11.94 69.57) rotate(-84.99)"/>
          <circle class="st103" cx="32" cy="41.29" r="32.16" transform="translate(-11.96 69.51) rotate(-84.93)"/>
          <circle class="st22" cx="32" cy="41.28" r="32.1" transform="translate(-11.98 69.46) rotate(-84.87)"/>
          <circle class="st51" cx="32" cy="41.27" r="32.03" transform="translate(-12 69.4) rotate(-84.81)"/>
          <circle class="st12" cx="32" cy="41.26" r="31.96" transform="translate(-12.02 69.34) rotate(-84.74)"/>
          <circle class="st147" cx="32" cy="41.25" r="31.89" transform="translate(-12.03 69.29) rotate(-84.68)"/>
          <circle class="st141" cx="32" cy="41.24" r="31.82" transform="translate(-12.05 69.23) rotate(-84.62)"/>
          <circle class="st127" cx="32" cy="41.23" r="31.75" transform="translate(-12.07 69.18) rotate(-84.56)"/>
          <circle class="st185" cx="32" cy="41.22" r="31.68" transform="translate(-12.09 69.12) rotate(-84.5)"/>
          <circle class="st165" cx="32" cy="41.21" r="31.61" transform="translate(-12.11 69.06) rotate(-84.44)"/>
          <circle class="st88" cx="32" cy="41.2" r="31.54" transform="translate(-12.13 69.01) rotate(-84.38)"/>
          <circle class="st26" cx="32" cy="41.19" r="31.47" transform="translate(-12.15 68.95) rotate(-84.31)"/>
          <circle class="st104" cx="32" cy="41.18" r="31.4" transform="translate(-12.18 68.89) rotate(-84.25)"/>
          <circle class="st99" cx="32" cy="41.17" r="31.33" transform="translate(-12.2 68.83) rotate(-84.19)"/>
          <circle class="st153" cx="32" cy="41.16" r="31.26" transform="translate(-12.22 68.78) rotate(-84.13)"/>
          <circle class="st182" cx="32" cy="41.15" r="31.19" transform="translate(-12.24 68.72) rotate(-84.06)"/>
          <circle class="st37" cx="32" cy="41.14" r="31.12" transform="translate(-12.26 68.66) rotate(-84)"/>
          <circle class="st96" cx="32" cy="41.13" r="31.05" transform="translate(-12.28 68.6) rotate(-83.94)"/>
          <circle class="st78" cx="32" cy="41.12" r="30.98" transform="translate(-12.3 68.55) rotate(-83.87)"/>
          <circle class="st160" cx="32" cy="41.11" r="30.91" transform="translate(-12.32 68.49) rotate(-83.81)"/>
          <circle class="st3" cx="32" cy="41.1" r="30.84" transform="translate(-12.34 68.43) rotate(-83.75)"/>
          <circle class="st36" cx="32" cy="41.09" r="30.77" transform="translate(-12.36 68.37) rotate(-83.68)"/>
          <circle class="st81" cx="32" cy="41.08" r="30.7" transform="translate(-12.38 68.31) rotate(-83.62)"/>
          <circle class="st59" cx="32" cy="41.07" r="30.64" transform="translate(-12.4 68.25) rotate(-83.56)"/>
          <circle class="st13" cx="32" cy="41.06" r="30.57" transform="translate(-12.42 68.2) rotate(-83.49)"/>
          <circle class="st121" cx="32" cy="41.05" r="30.5" transform="translate(-12.44 68.14) rotate(-83.43)"/>
          <circle class="st137" cx="32" cy="41.04" r="30.43" transform="translate(-12.46 68.08) rotate(-83.36)"/>
          <circle class="st6" cx="32" cy="41.03" r="30.36" transform="translate(-12.48 68.02) rotate(-83.3)"/>
          <circle class="st1" cx="32" cy="41.02" r="30.29" transform="translate(-12.5 67.96) rotate(-83.23)"/>
          <circle class="st61" cx="32" cy="41.01" r="30.22" transform="translate(-12.52 67.9) rotate(-83.17)"/>
          <circle class="st39" cx="32" cy="41" r="30.15" transform="translate(-12.54 67.84) rotate(-83.1)"/>
          <circle class="st143" cx="32" cy="40.99" r="30.08" transform="translate(-12.56 67.78) rotate(-83.03)"/>
          <circle class="st144" cx="32" cy="40.98" r="30.01" transform="translate(-12.59 67.72) rotate(-82.97)"/>
          <circle class="st42" cx="32" cy="40.97" r="29.94" transform="translate(-12.61 67.66) rotate(-82.9)"/>
          <circle class="st16" cx="32" cy="40.96" r="29.87" transform="translate(-12.63 67.6) rotate(-82.84)"/>
          <circle class="st90" cx="32" cy="40.95" r="29.8" transform="translate(-12.65 67.54) rotate(-82.77)"/>
          <circle class="st172" cx="32" cy="40.94" r="29.73" transform="translate(-12.67 67.48) rotate(-82.7)"/>
          <circle class="st183" cx="32" cy="40.93" r="29.66" transform="translate(-12.69 67.42) rotate(-82.64)"/>
          <circle class="st72" cx="32" cy="40.92" r="29.59" transform="translate(-12.71 67.36) rotate(-82.57)"/>
          <circle class="st131" cx="32" cy="40.91" r="29.52" transform="translate(-12.73 67.29) rotate(-82.5)"/>
          <circle class="st149" cx="32" cy="40.9" r="29.45" transform="translate(-12.75 67.23) rotate(-82.44)"/>
          <circle class="st148" cx="32" cy="40.89" r="29.38" transform="translate(-12.77 67.17) rotate(-82.37)"/>
          <circle class="st203" cx="32" cy="40.88" r="29.31" transform="translate(-12.79 67.11) rotate(-82.3)"/>
          <circle class="st32" cx="32" cy="40.87" r="29.24" transform="translate(-12.82 67.05) rotate(-82.23)"/>
          <circle class="st213" cx="32" cy="40.86" r="29.18" transform="translate(-12.84 66.99) rotate(-82.16)"/>
          <circle class="st196" cx="32" cy="40.85" r="29.11" transform="translate(-12.86 66.92) rotate(-82.1)"/>
          <circle class="st197" cx="32" cy="40.84" r="29.04" transform="translate(-12.88 66.86) rotate(-82.03)"/>
          <circle class="st52" cx="32" cy="40.83" r="28.97" transform="translate(-12.9 66.8) rotate(-81.96)"/>
          <circle class="st179" cx="32" cy="40.82" r="28.9" transform="translate(-12.92 66.74) rotate(-81.89)"/>
          <circle class="st44" cx="32" cy="40.81" r="28.83" transform="translate(-12.94 66.67) rotate(-81.82)"/>
          <circle class="st208" cx="32" cy="40.8" r="28.76" transform="translate(-12.96 66.61) rotate(-81.75)"/>
          <circle class="st73" cx="32" cy="40.79" r="28.69" transform="translate(-12.99 66.55) rotate(-81.68)"/>
          <circle class="st184" cx="32" cy="40.78" r="28.62" transform="translate(-13.01 66.49) rotate(-81.61)"/>
          <circle class="st199" cx="32" cy="40.77" r="28.55" transform="translate(-13.03 66.42) rotate(-81.54)"/>
          <circle class="st105" cx="32" cy="40.76" r="28.48" transform="translate(-13.05 66.36) rotate(-81.47)"/>
          <circle class="st23" cx="32" cy="40.75" r="28.41" transform="translate(-13.07 66.3) rotate(-81.4)"/>
          <circle class="st97" cx="32" cy="40.74" r="28.34" transform="translate(-13.09 66.23) rotate(-81.33)"/>
          <circle class="st70" cx="32" cy="40.73" r="28.27" transform="translate(-13.11 66.17) rotate(-81.26)"/>
          <circle class="st95" cx="32" cy="40.72" r="28.2" transform="translate(-13.14 66.1) rotate(-81.19)"/>
          <circle class="st43" cx="32" cy="40.71" r="28.13" transform="translate(-13.16 66.04) rotate(-81.12)"/>
          <circle class="st180" cx="32" cy="40.7" r="28.06" transform="translate(-13.18 65.97) rotate(-81.05)"/>
          <circle class="st5" cx="32" cy="40.69" r="27.99" transform="translate(-13.2 65.91) rotate(-80.98)"/>
          <circle class="st109" cx="32" cy="40.68" r="27.92" transform="translate(-13.22 65.85) rotate(-80.91)"/>
          <circle class="st176" cx="32" cy="40.67" r="27.85" transform="translate(-13.24 65.78) rotate(-80.84)"/>
          <circle class="st174" cx="32" cy="40.66" r="27.78" transform="translate(-13.26 65.72) rotate(-80.76)"/>
          <circle class="st45" cx="32" cy="40.64" r="27.72" transform="translate(-13.29 65.65) rotate(-80.69)"/>
          <circle class="st193" cx="32" cy="40.63" r="27.65" transform="translate(-13.31 65.58) rotate(-80.62)"/>
          <circle class="st211" cx="32" cy="40.62" r="27.58" transform="translate(-13.33 65.52) rotate(-80.55)"/>
          <circle class="st212" cx="32" cy="40.61" r="27.51" transform="translate(-13.35 65.45) rotate(-80.48)"/>
          <circle class="st8" cx="32" cy="40.6" r="27.44" transform="translate(-13.37 65.39) rotate(-80.4)"/>
          <circle class="st140" cx="32" cy="40.59" r="27.37" transform="translate(-13.39 65.32) rotate(-80.33)"/>
          <circle class="st156" cx="32" cy="40.58" r="27.3" transform="translate(-13.41 65.26) rotate(-80.26)"/>
          <circle class="st114" cx="32" cy="40.57" r="27.23" transform="translate(-13.44 65.19) rotate(-80.18)"/>
          <circle class="st210" cx="32" cy="40.56" r="27.16" transform="translate(-13.46 65.12) rotate(-80.11)"/>
          <circle class="st38" cx="32" cy="40.55" r="27.09" transform="translate(-13.48 65.06) rotate(-80.04)"/>
          <circle class="st214" cx="32" cy="40.54" r="27.02" transform="translate(-13.5 64.99) rotate(-79.96)"/>
          <circle class="st115" cx="32" cy="40.53" r="26.95" transform="translate(-13.52 64.92) rotate(-79.89)"/>
          <circle class="st54" cx="32" cy="40.52" r="26.88" transform="translate(-13.54 64.86) rotate(-79.82)"/>
          <circle class="st49" cx="32" cy="40.51" r="26.81" transform="translate(-13.57 64.79) rotate(-79.74)"/>
          <circle class="st135" cx="32" cy="40.5" r="26.74" transform="translate(-13.59 64.72) rotate(-79.67)"/>
          <circle class="st134" cx="32" cy="40.49" r="26.67" transform="translate(-13.61 64.65) rotate(-79.59)"/>
          <circle class="st107" cx="32" cy="40.48" r="26.6" transform="translate(-13.63 64.59) rotate(-79.52)"/>
          <circle class="st175" cx="32" cy="40.47" r="26.53" transform="translate(-13.65 64.52) rotate(-79.44)"/>
          <circle class="st164" cx="32" cy="40.46" r="26.46" transform="translate(-13.67 64.45) rotate(-79.37)"/>
          <circle class="st145" cx="32" cy="40.45" r="26.39" transform="translate(-13.69 64.38) rotate(-79.29)"/>
          <circle class="st188" cx="32" cy="40.44" r="26.32" transform="translate(-13.72 64.31) rotate(-79.22)"/>
          <circle class="st205" cx="32" cy="40.43" r="26.26" transform="translate(-13.74 64.24) rotate(-79.14)"/>
          <circle class="st83" cx="32" cy="40.42" r="26.19" transform="translate(-13.76 64.18) rotate(-79.07)"/>
          <circle class="st82" cx="32" cy="40.41" r="26.12" transform="translate(-13.78 64.11) rotate(-78.99)"/>
          <circle class="st133" cx="32" cy="40.4" r="26.05" transform="translate(-13.8 64.04) rotate(-78.91)"/>
          <circle class="st207" cx="32" cy="40.39" r="25.98" transform="translate(-13.82 63.97) rotate(-78.84)"/>
          <circle class="st53" cx="32" cy="40.38" r="25.91" transform="translate(-13.85 63.9) rotate(-78.76)"/>
          <circle class="st190" cx="32" cy="40.37" r="25.84" transform="translate(-13.87 63.83) rotate(-78.69)"/>
          <circle class="st170" cx="32" cy="40.36" r="25.77" transform="translate(-13.89 63.76) rotate(-78.61)"/>
          <circle class="st209" cx="32" cy="40.35" r="25.7" transform="translate(-13.91 63.69) rotate(-78.53)"/>
          <circle class="st178" cx="32" cy="40.34" r="25.63" transform="translate(-13.93 63.62) rotate(-78.45)"/>
          <circle class="st195" cx="32" cy="40.33" r="25.56" transform="translate(-13.95 63.55) rotate(-78.38)"/>
          <circle class="st191" cx="32" cy="40.32" r="25.49" transform="translate(-13.98 63.48) rotate(-78.3)"/>
          <circle class="st108" cx="32" cy="40.31" r="25.42" transform="translate(-14 63.41) rotate(-78.22)"/>
          <circle class="st65" cx="32" cy="40.3" r="25.35" transform="translate(-14.02 63.34) rotate(-78.14)"/>
          <circle class="st146" cx="32" cy="40.29" r="25.28" transform="translate(-14.04 63.27) rotate(-78.07)"/>
          <circle class="st14" cx="32" cy="40.28" r="25.21" transform="translate(-14.06 63.2) rotate(-77.99)"/>
          <circle class="st142" cx="32" cy="40.27" r="25.14" transform="translate(-14.08 63.13) rotate(-77.91)"/>
          <circle class="st119" cx="32" cy="40.26" r="25.07" transform="translate(-14.1 63.06) rotate(-77.83)"/>
          <circle class="st118" cx="32" cy="40.25" r="25" transform="translate(-14.13 62.99) rotate(-77.75)"/>
          <circle class="st9" cx="32" cy="40.24" r="24.93" transform="translate(-14.15 62.92) rotate(-77.67)"/>
          <circle class="st106" cx="32" cy="40.23" r="24.86" transform="translate(-14.17 62.84) rotate(-77.6)"/>
          <circle class="st181" cx="32" cy="40.22" r="24.8" transform="translate(-14.19 62.77) rotate(-77.52)"/>
          <circle class="st218" cx="32" cy="40.21" r="24.73" transform="translate(-14.21 62.7) rotate(-77.44)"/>
          <circle class="st55" cx="32" cy="40.2" r="24.66" transform="translate(-14.23 62.63) rotate(-77.36)"/>
          <circle class="st163" cx="32" cy="40.19" r="24.59" transform="translate(-14.25 62.56) rotate(-77.28)"/>
          <circle class="st84" cx="32" cy="40.18" r="24.52" transform="translate(-14.27 62.48) rotate(-77.2)"/>
          <circle class="st47" cx="32" cy="40.17" r="24.45" transform="translate(-14.3 62.41) rotate(-77.12)"/>
          <circle class="st29" cx="32" cy="40.16" r="24.38" transform="translate(-14.32 62.34) rotate(-77.04)"/>
          <circle class="st7" cx="32" cy="40.15" r="24.31" transform="translate(-14.34 62.27) rotate(-76.96)"/>
          <circle class="st98" cx="32" cy="40.14" r="24.24" transform="translate(-14.36 62.19) rotate(-76.88)"/>
          <circle class="st122" cx="32" cy="40.13" r="24.17" transform="translate(-14.38 62.12) rotate(-76.8)"/>
          <circle class="st63" cx="32" cy="40.12" r="24.1" transform="translate(-14.4 62.05) rotate(-76.72)"/>
        </g>
        <circle class="st117" cx="32" cy="31.28" r="33.67"/>
        <g>
          <g>
            <path class="st64" d="M39.27,45.06h-14.53c-3.6,0-6.52-2.93-6.52-6.52v-14.53c0-3.59,2.92-6.52,6.52-6.52h14.53c3.6,0,6.52,2.93,6.52,6.52v14.53c0,3.59-2.92,6.52-6.52,6.52ZM24.74,19.17c-2.67,0-4.84,2.17-4.84,4.84v14.53c0,2.67,2.17,4.84,4.84,4.84h14.53c2.67,0,4.84-2.17,4.84-4.84v-14.53c0-2.67-2.17-4.84-4.84-4.84h-14.53Z"/>
            <g>
              <path class="st64" d="M32,18.61c-.46,0-.84-.38-.84-.84v-4.49c0-.46.38-.84.84-.84s.84.38.84.84v4.49c0,.46-.38.84-.84.84Z"/>
              <path class="st64" d="M37.04,18.98c-.46,0-.84-.38-.84-.84v-7.43c0-.46.38-.84.84-.84s.84.38.84.84v7.43c0,.46-.38.84-.84.84Z"/>
              <path class="st64" d="M42.07,19.47c-.46,0-.84-.38-.84-.84v-5.35c0-.46.38-.84.84-.84s.84.38.84.84v5.35c0,.46-.38.84-.84.84Z"/>
              <path class="st64" d="M21.93,19.47c-.46,0-.84-.38-.84-.84v-5.35c0-.46.38-.84.84-.84s.84.38.84.84v5.35c0,.46-.38.84-.84.84Z"/>
              <path class="st64" d="M26.96,18.98c-.46,0-.84-.38-.84-.84v-7.43c0-.46.38-.84.84-.84s.84.38.84.84v7.43c0,.46-.38.84-.84.84Z"/>
            </g>
            <g>
              <path class="st64" d="M32,50.11c-.46,0-.84-.38-.84-.84v-4.49c0-.46.38-.84.84-.84s.84.38.84.84v4.49c0,.46-.38.84-.84.84Z"/>
              <path class="st64" d="M37.04,52.68c-.46,0-.84-.38-.84-.84v-7.43c0-.46.38-.84.84-.84s.84.38.84.84v7.43c0,.46-.38.84-.84.84Z"/>
              <path class="st64" d="M42.07,50.11c-.46,0-.84-.38-.84-.84v-5.34c0-.46.38-.84.84-.84s.84.38.84.84v5.34c0,.46-.38.84-.84.84Z"/>
              <path class="st64" d="M21.93,50.11c-.46,0-.84-.38-.84-.84v-5.34c0-.46.38-.84.84-.84s.84.38.84.84v5.34c0,.46-.38.84-.84.84Z"/>
              <path class="st64" d="M26.96,52.68c-.46,0-.84-.38-.84-.84v-7.43c0-.46.38-.84.84-.84s.84.38.84.84v7.43c0,.46-.38.84-.84.84Z"/>
            </g>
            <g>
              <path class="st64" d="M49.99,32.12h-4.49c-.46,0-.84-.38-.84-.84s.38-.84.84-.84h4.49c.46,0,.84.38.84.84s-.38.84-.84.84Z"/>
              <path class="st64" d="M52.56,37.15h-7.43c-.46,0-.84-.38-.84-.84s.38-.84.84-.84h7.43c.46,0,.84.38.84.84s-.38.84-.84.84Z"/>
              <path class="st64" d="M49.99,42.19h-5.35c-.46,0-.84-.38-.84-.84s.38-.84.84-.84h5.35c.46,0,.84.38.84.84s-.38.84-.84.84Z"/>
              <path class="st64" d="M49.99,22.04h-5.35c-.46,0-.84-.38-.84-.84s.38-.84.84-.84h5.35c.46,0,.84.38.84.84s-.38.84-.84.84Z"/>
              <path class="st64" d="M52.56,27.08h-7.43c-.46,0-.84-.38-.84-.84s.38-.84.84-.84h7.43c.46,0,.84.38.84.84s-.38.84-.84.84Z"/>
            </g>
            <g>
              <path class="st64" d="M18.5,32.12h-4.49c-.46,0-.84-.38-.84-.84s.38-.84.84-.84h4.49c.46,0,.84.38.84.84s-.38.84-.84.84Z"/>
              <path class="st64" d="M18.87,37.15h-7.43c-.46,0-.84-.38-.84-.84s.38-.84.84-.84h7.43c.46,0,.84.38.84.84s-.38.84-.84.84Z"/>
              <path class="st64" d="M19.35,42.19h-5.35c-.46,0-.84-.38-.84-.84s.38-.84.84-.84h5.35c.46,0,.84.38.84.84s-.38.84-.84.84Z"/>
              <path class="st64" d="M19.35,22.04h-5.35c-.46,0-.84-.38-.84-.84s.38-.84.84-.84h5.35c.46,0,.84.38.84.84s-.38.84-.84.84Z"/>
              <path class="st64" d="M18.87,27.08h-7.43c-.46,0-.84-.38-.84-.84s.38-.84.84-.84h7.43c.46,0,.84.38.84.84s-.38.84-.84.84Z"/>
            </g>
            <g>
              <g>
                <path class="st64" d="M22.06,33.33c-.46,0-.84-.38-.84-.84v-2.42c0-.46.38-.84.84-.84s.84.38.84.84v2.42c0,.46-.38.84-.84.84Z"/>
                <path class="st64" d="M22.06,26.27c-.46,0-.84-.38-.84-.84v-1.87c0-.46.38-.84.84-.84s.84.38.84.84v1.87c0,.46-.38.84-.84.84Z"/>
                <path class="st64" d="M22.06,39.83c-.46,0-.84-.38-.84-.84v-1.87c0-.46.38-.84.84-.84s.84.38.84.84v1.87c0,.46-.38.84-.84.84Z"/>
              </g>
              <g>
                <path class="st64" d="M41.94,33.33c-.46,0-.84-.38-.84-.84v-2.42c0-.46.38-.84.84-.84s.84.38.84.84v2.42c0,.46-.38.84-.84.84Z"/>
                <path class="st64" d="M41.94,26.27c-.46,0-.84-.38-.84-.84v-1.87c0-.46.38-.84.84-.84s.84.38.84.84v1.87c0,.46-.38.84-.84.84Z"/>
                <path class="st64" d="M41.94,39.83c-.46,0-.84-.38-.84-.84v-1.87c0-.46.38-.84.84-.84s.84.38.84.84v1.87c0,.46-.38.84-.84.84Z"/>
              </g>
            </g>
          </g>
          <path class="st64" d="M32,39.84c-.13,0-.27-.03-.39-.1l-3.65-1.91c-1.79-.94-2.85-2.75-2.78-4.72l.27-7.29c.01-.38.29-.71.66-.79l5.71-1.25c.12-.03.24-.03.36,0l5.71,1.25c.37.08.65.41.66.79l.27,7.29c.07,1.97-.99,3.77-2.77,4.71l-3.65,1.91c-.12.06-.26.1-.39.1ZM27.1,26.54l-.24,6.64c-.05,1.32.67,2.54,1.88,3.17l3.26,1.7,3.26-1.71c1.2-.64,1.92-1.85,1.88-3.17l-.24-6.64-4.9-1.07-4.9,1.07Z"/>
        </g>
      </g>
    </g>
  </g>
</svg>